<svg width="25" height="25" viewBox="0 0 25 25" fill="none" xmlns="http://www.w3.org/2000/svg">
<path d="M8.20005 9.76203H8.62568L8.98101 13.3154C8.99073 13.4121 9.03612 13.5016 9.10832 13.5666C9.18052 13.6316 9.27436 13.6673 9.3715 13.6668H15.6192C15.7163 13.6673 15.8102 13.6316 15.8824 13.5666C15.9546 13.5016 16 13.4121 16.0097 13.3154L16.365 9.76203H16.7906C16.8942 9.76203 16.9935 9.72089 17.0668 9.64766C17.14 9.57443 17.1811 9.47511 17.1811 9.37155V7.80962C17.1811 7.70606 17.14 7.60674 17.0668 7.53351C16.9935 7.46028 16.8942 7.41914 16.7906 7.41914H16.0878L16.2674 6.4117C16.2952 6.24492 16.2865 6.07411 16.242 5.91099C16.1976 5.74787 16.1183 5.59632 16.0097 5.46674C15.8983 5.34221 15.7616 5.24294 15.6087 5.17559C15.4559 5.10824 15.2903 5.07437 15.1233 5.07625H9.88303C9.71284 5.07424 9.54425 5.10933 9.38901 5.1791C9.23376 5.24886 9.09558 5.35161 8.98408 5.48021C8.87258 5.6088 8.79045 5.76015 8.74339 5.92371C8.69633 6.08728 8.68547 6.25913 8.71158 6.42732L8.90292 7.41914H8.20005C8.09649 7.41914 7.99717 7.46028 7.92394 7.53351C7.85071 7.60674 7.80957 7.70606 7.80957 7.80962V9.37155C7.80957 9.47511 7.85071 9.57443 7.92394 9.64766C7.99717 9.72089 8.09649 9.76203 8.20005 9.76203ZM11.484 10.9335L11.3669 9.76203H13.6238L13.5067 10.9335H11.484ZM13.4364 11.7144L13.3193 12.8859H11.6792L11.5621 11.7144H13.4364ZM10.5859 9.76203L10.703 10.9335H9.53159L9.41835 9.76203H10.5859ZM9.60579 11.7144H10.7772L10.8944 12.8859H9.72293L9.60579 11.7144ZM14.1002 12.8859L14.2174 11.7144H15.3888L15.2717 12.8859H14.1002ZM15.463 10.9335H14.2916L14.4087 9.76203H15.5802L15.463 10.9335ZM9.49645 6.30237C9.48868 6.24752 9.49267 6.19165 9.50816 6.13846C9.52364 6.08527 9.55027 6.03599 9.58626 5.99389C9.62292 5.95102 9.66843 5.91661 9.71966 5.89302C9.77089 5.86943 9.82663 5.85721 9.88303 5.85722H15.1077C15.1641 5.85721 15.2198 5.86943 15.271 5.89302C15.3223 5.91661 15.3678 5.95102 15.4044 5.99389C15.4391 6.03382 15.4652 6.08036 15.4813 6.1307C15.4974 6.18104 15.5032 6.23413 15.4981 6.28675L15.2951 7.41914H9.6956L9.49645 6.30237ZM8.59053 8.20011H16.4002V8.98107H8.59053V8.20011Z" fill="#3F3679"/>
<path d="M11.3241 15.2288H5.46685C5.36329 15.2288 5.26397 15.1876 5.19074 15.1144C5.11751 15.0412 5.07637 14.9419 5.07637 14.8383V3.90481C5.07637 3.80125 5.11751 3.70193 5.19074 3.6287C5.26397 3.55547 5.36329 3.51433 5.46685 3.51433H19.5242C19.6278 3.51433 19.7271 3.55547 19.8003 3.6287C19.8735 3.70193 19.9147 3.80125 19.9147 3.90481V12.8859C19.9147 12.9894 19.9558 13.0888 20.029 13.162C20.1023 13.2352 20.2016 13.2764 20.3052 13.2764C20.4087 13.2764 20.508 13.2352 20.5813 13.162C20.6545 13.0888 20.6956 12.9894 20.6956 12.8859V3.90481C20.6956 3.59413 20.5722 3.29616 20.3525 3.07648C20.1328 2.85679 19.8349 2.73337 19.5242 2.73337H5.46685C5.15617 2.73337 4.85821 2.85679 4.63852 3.07648C4.41883 3.29616 4.29541 3.59413 4.29541 3.90481V14.8383C4.29541 15.149 4.41883 15.4469 4.63852 15.6666C4.85821 15.8863 5.15617 16.0097 5.46685 16.0097H11.3241C11.4276 16.0097 11.527 15.9686 11.6002 15.8954C11.6734 15.8221 11.7146 15.7228 11.7146 15.6193C11.7146 15.5157 11.6734 15.4164 11.6002 15.3431C11.527 15.2699 11.4276 15.2288 11.3241 15.2288Z" fill="#3F3679"/>
<path d="M24.3232 17.6966L21.0119 14.3853C20.903 14.2761 20.7737 14.1895 20.6313 14.1304C20.4889 14.0712 20.3363 14.0408 20.1821 14.0408C20.0279 14.0408 19.8753 14.0712 19.7329 14.1304C19.5905 14.1895 19.4612 14.2761 19.3523 14.3853C19.2111 14.5284 19.1101 14.7062 19.0595 14.9008C18.8638 14.857 18.6602 14.8641 18.468 14.9216C18.2759 14.979 18.1018 15.0848 17.9622 15.2288C17.8175 15.3729 17.7148 15.5538 17.6655 15.752C17.4734 15.7099 17.2739 15.7156 17.0846 15.7687C16.8953 15.8219 16.722 15.9207 16.5799 16.0566C16.4871 16.1521 16.4117 16.2631 16.3573 16.3846L14.3737 14.401C14.1541 14.1809 13.8562 14.0571 13.5453 14.0567C13.2344 14.0563 12.9362 14.1795 12.7161 14.399C12.496 14.6186 12.3722 14.9165 12.3718 15.2274C12.3715 15.5383 12.4946 15.8365 12.7141 16.0566L17.6967 21.0118C17.7694 21.085 17.8102 21.1839 17.8102 21.2871C17.8102 21.3903 17.7694 21.4892 17.6967 21.5624C17.6235 21.6351 17.5246 21.6759 17.4214 21.6759C17.3182 21.6759 17.2193 21.6351 17.1461 21.5624L16.3183 20.7346C15.4436 19.8599 14.3112 20.5354 13.8309 21.0118C13.7582 21.085 13.7174 21.1839 13.7174 21.2871C13.7174 21.3903 13.7582 21.4892 13.8309 21.5624L16.3183 24.0498C16.3729 24.1037 16.4421 24.1404 16.5174 24.1552L20.6565 24.9908H20.7346C20.8382 25.0012 20.9416 24.97 21.0222 24.9041C21.1027 24.8382 21.1538 24.743 21.1642 24.6394C21.1745 24.5358 21.1433 24.4324 21.0774 24.3518C21.0115 24.2713 20.9163 24.2202 20.8127 24.2099L16.7908 23.4289L14.6939 21.3203C14.8384 21.1872 15.026 21.1105 15.2223 21.1041C15.4187 21.0976 15.6108 21.1619 15.7638 21.2852L16.5916 22.1169C16.8157 22.3292 17.1127 22.4475 17.4214 22.4475C17.7301 22.4475 18.0271 22.3292 18.2512 22.1169C18.3604 22.0081 18.447 21.8787 18.5062 21.7363C18.5653 21.5939 18.5957 21.4413 18.5957 21.2871C18.5957 21.1329 18.5653 20.9803 18.5062 20.8379C18.447 20.6955 18.3604 20.5662 18.2512 20.4573L13.2764 15.4904C13.2398 15.4541 13.2108 15.4109 13.191 15.3633C13.1711 15.3158 13.1609 15.2647 13.1609 15.2132C13.1609 15.1616 13.1711 15.1106 13.191 15.063C13.2108 15.0154 13.2398 14.9722 13.2764 14.9359C13.3496 14.8632 13.4486 14.8224 13.5517 14.8224C13.6549 14.8224 13.7539 14.8632 13.827 14.9359L16.5877 17.6966L17.4195 18.5245C17.4915 18.598 17.5898 18.6401 17.6928 18.6416C17.7722 18.643 17.8501 18.6201 17.9162 18.5761C17.9823 18.5321 18.0334 18.4689 18.0626 18.3951C18.0919 18.3213 18.098 18.2403 18.08 18.163C18.0621 18.0856 18.021 18.0156 17.9622 17.9622L17.1344 17.1343C17.0978 17.098 17.0688 17.0549 17.0489 17.0073C17.0291 16.9597 17.0189 16.9086 17.0189 16.8571C17.0189 16.8055 17.0291 16.7545 17.0489 16.7069C17.0688 16.6593 17.0978 16.6162 17.1344 16.5799C17.2076 16.5071 17.3065 16.4663 17.4097 16.4663C17.5128 16.4663 17.6118 16.5071 17.685 16.5799L17.9622 16.8571L18.79 17.6849C18.8262 17.7218 18.8693 17.7512 18.9169 17.7713C18.9645 17.7914 19.0156 17.8018 19.0673 17.8021C19.1445 17.8017 19.2199 17.7785 19.2839 17.7353C19.348 17.6922 19.3978 17.631 19.427 17.5595C19.4563 17.488 19.4637 17.4095 19.4483 17.3338C19.4329 17.2581 19.3955 17.1887 19.3406 17.1343L19.0673 16.8571L18.5128 16.3065C18.4393 16.233 18.398 16.1333 18.398 16.0293C18.398 15.9253 18.4393 15.8256 18.5128 15.752C18.5863 15.6785 18.6861 15.6372 18.79 15.6372C18.894 15.6372 18.9938 15.6785 19.0673 15.752L19.3406 16.0293L20.1723 16.8571C20.247 16.9211 20.3431 16.9545 20.4414 16.9507C20.5397 16.9469 20.6329 16.9062 20.7024 16.8366C20.772 16.7671 20.8127 16.6739 20.8165 16.5756C20.8203 16.4773 20.7869 16.3812 20.7229 16.3065L20.4457 16.0293L20.1723 15.752L19.8951 15.4787C19.8585 15.4424 19.8295 15.3992 19.8096 15.3516C19.7898 15.304 19.7796 15.253 19.7796 15.2015C19.7796 15.1499 19.7898 15.0989 19.8096 15.0513C19.8295 15.0037 19.8585 14.9605 19.8951 14.9242C19.9683 14.8515 20.0672 14.8107 20.1704 14.8107C20.2736 14.8107 20.3725 14.8515 20.4457 14.9242L23.675 18.1535L24.2099 20.8127C24.2282 20.9022 24.2773 20.9825 24.3486 21.0396C24.4199 21.0967 24.5091 21.1269 24.6004 21.1251H24.6785C24.7303 21.1158 24.7796 21.0961 24.8236 21.0673C24.8676 21.0385 24.9053 21.0011 24.9345 20.9573C24.9637 20.9135 24.9837 20.8643 24.9934 20.8126C25.0031 20.761 25.0022 20.7078 24.9909 20.6565L24.4403 17.8958C24.4222 17.8191 24.3814 17.7497 24.3232 17.6966Z" fill="#3F3679"/>
<path d="M12.4955 1.95241C12.599 1.95241 12.6983 1.91127 12.7716 1.83804C12.8448 1.76481 12.8859 1.66549 12.8859 1.56193V0.390481C12.8859 0.286919 12.8448 0.187599 12.7716 0.114369C12.6983 0.0411399 12.599 0 12.4955 0C12.3919 0 12.2926 0.0411399 12.2193 0.114369C12.1461 0.187599 12.105 0.286919 12.105 0.390481V1.56193C12.105 1.66549 12.1461 1.76481 12.2193 1.83804C12.2926 1.91127 12.3919 1.95241 12.4955 1.95241Z" fill="#3F3679"/>
<path d="M12.4955 16.7907C12.3919 16.7907 12.2926 16.8319 12.2193 16.9051C12.1461 16.9783 12.105 17.0776 12.105 17.1812V18.3526C12.105 18.4562 12.1461 18.5555 12.2193 18.6287C12.2926 18.702 12.3919 18.7431 12.4955 18.7431C12.599 18.7431 12.6983 18.702 12.7716 18.6287C12.8448 18.5555 12.8859 18.4562 12.8859 18.3526V17.1812C12.8859 17.0776 12.8448 16.9783 12.7716 16.9051C12.6983 16.8319 12.599 16.7907 12.4955 16.7907Z" fill="#3F3679"/>
<path d="M21.4766 9.37156C21.4766 9.47512 21.5177 9.57444 21.5909 9.64767C21.6642 9.7209 21.7635 9.76204 21.867 9.76204H23.0385C23.1421 9.76204 23.2414 9.7209 23.3146 9.64767C23.3878 9.57444 23.429 9.47512 23.429 9.37156C23.429 9.268 23.3878 9.16868 23.3146 9.09545C23.2414 9.02222 23.1421 8.98108 23.0385 8.98108H21.867C21.7635 8.98108 21.6642 9.02222 21.5909 9.09545C21.5177 9.16868 21.4766 9.268 21.4766 9.37156Z" fill="#3F3679"/>
<path d="M3.51442 9.37156C3.51442 9.268 3.47328 9.16868 3.40005 9.09545C3.32682 9.02222 3.2275 8.98108 3.12394 8.98108H1.95249C1.84893 8.98108 1.74961 9.02222 1.67638 9.09545C1.60315 9.16868 1.56201 9.268 1.56201 9.37156C1.56201 9.47512 1.60315 9.57444 1.67638 9.64767C1.74961 9.7209 1.84893 9.76204 1.95249 9.76204H3.12394C3.2275 9.76204 3.32682 9.7209 3.40005 9.64767C3.47328 9.57444 3.51442 9.47512 3.51442 9.37156Z" fill="#3F3679"/>
<path d="M3.01063 0.503723C2.9371 0.430194 2.83737 0.388885 2.73339 0.388885C2.6294 0.388885 2.52968 0.430194 2.45615 0.503723C2.38262 0.577252 2.34131 0.676979 2.34131 0.780965C2.34131 0.88495 2.38262 0.984677 2.45615 1.05821L3.23711 1.83917C3.27341 1.87577 3.3166 1.90482 3.36418 1.92464C3.41176 1.94447 3.4628 1.95467 3.51435 1.95467C3.5659 1.95467 3.61694 1.94447 3.66452 1.92464C3.7121 1.90482 3.75529 1.87577 3.79159 1.83917C3.82819 1.80287 3.85724 1.75968 3.87707 1.7121C3.89689 1.66451 3.9071 1.61348 3.9071 1.56193C3.9071 1.51038 3.89689 1.45934 3.87707 1.41176C3.85724 1.36417 3.82819 1.32099 3.79159 1.28469L3.01063 0.503723Z" fill="#3F3679"/>
<path d="M3.23704 16.9039L2.45608 17.6849C2.41948 17.7212 2.39043 17.7644 2.37061 17.812C2.35078 17.8596 2.34058 17.9106 2.34058 17.9621C2.34058 18.0137 2.35078 18.0647 2.37061 18.1123C2.39043 18.1599 2.41948 18.2031 2.45608 18.2394C2.49238 18.276 2.53557 18.305 2.58315 18.3249C2.63074 18.3447 2.68177 18.3549 2.73332 18.3549C2.78487 18.3549 2.83591 18.3447 2.88349 18.3249C2.93108 18.305 2.97426 18.276 3.01056 18.2394L3.79153 17.4584C3.86506 17.3849 3.90636 17.2852 3.90636 17.1812C3.90636 17.0772 3.86506 16.9775 3.79153 16.9039C3.718 16.8304 3.61827 16.7891 3.51428 16.7891C3.4103 16.7891 3.31057 16.8304 3.23704 16.9039Z" fill="#3F3679"/>
<path d="M21.4765 1.95241C21.5279 1.95271 21.5788 1.94286 21.6264 1.92342C21.674 1.90399 21.7172 1.87536 21.7537 1.83917L22.5347 1.05821C22.5711 1.0218 22.6 0.978576 22.6197 0.931007C22.6394 0.883438 22.6495 0.832453 22.6495 0.780965C22.6495 0.729476 22.6394 0.678492 22.6197 0.630922C22.6 0.583353 22.5711 0.540131 22.5347 0.503723C22.4983 0.467315 22.4551 0.438435 22.4075 0.418731C22.3599 0.399027 22.3089 0.388885 22.2574 0.388885C22.206 0.388885 22.155 0.399027 22.1074 0.418731C22.0598 0.438435 22.0166 0.467315 21.9802 0.503723L21.1992 1.28469C21.1626 1.32099 21.1336 1.36417 21.1138 1.41176C21.0939 1.45934 21.0837 1.51038 21.0837 1.56193C21.0837 1.61348 21.0939 1.66451 21.1138 1.7121C21.1336 1.75968 21.1626 1.80287 21.1992 1.83917C21.2357 1.87536 21.279 1.90399 21.3266 1.92342C21.3742 1.94286 21.4251 1.95271 21.4765 1.95241Z" fill="#3F3679"/>
<path d="M0 8.98108H0.780963V9.76204H0V8.98108Z" fill="#3F3679"/>
<path d="M24.21 8.98108H24.9909V9.76204H24.21V8.98108Z" fill="#3F3679"/>
<path d="M6.63814 5.07625H7.80958C7.91315 5.07625 8.01247 5.03511 8.0857 4.96188C8.15893 4.88865 8.20007 4.78933 8.20007 4.68577C8.20007 4.58221 8.15893 4.48289 8.0857 4.40966C8.01247 4.33643 7.91315 4.29529 7.80958 4.29529H6.24766C6.1441 4.29529 6.04478 4.33643 5.97155 4.40966C5.89832 4.48289 5.85718 4.58221 5.85718 4.68577V6.63818C5.85718 6.74174 5.89832 6.84106 5.97155 6.91429C6.04478 6.98752 6.1441 7.02866 6.24766 7.02866C6.35122 7.02866 6.45054 6.98752 6.52377 6.91429C6.597 6.84106 6.63814 6.74174 6.63814 6.63818V5.07625Z" fill="#3F3679"/>
<path d="M5.85718 7.41916H6.63814V8.20012H5.85718V7.41916Z" fill="#3F3679"/>
</svg>
