<svg width="25" height="20" viewBox="0 0 25 20" fill="none" xmlns="http://www.w3.org/2000/svg">
<path d="M12.3942 5.47025H13.6758V4.68878H12.1129C12.0309 4.68857 11.951 4.71411 11.8844 4.76179C11.8178 4.80947 11.7679 4.87687 11.7417 4.95448L11.4408 5.86098H6.25186C6.19251 5.86066 6.13386 5.87387 6.08038 5.8996C6.02689 5.92532 5.97997 5.9629 5.94318 6.00946C5.90664 6.05642 5.88132 6.11111 5.86913 6.16934C5.85694 6.22758 5.85821 6.28783 5.87284 6.34549L6.65431 9.47137C6.67525 9.55608 6.72395 9.63134 6.79264 9.68516C6.86133 9.73898 6.94606 9.76826 7.03332 9.76832H10.9407C11.0299 9.77092 11.1174 9.74287 11.1885 9.68884C11.2596 9.63481 11.31 9.55806 11.3314 9.47137L12.1129 6.34549L12.3942 5.47025ZM11.0266 7.42392H10.4054L10.503 6.64245H11.222L11.0266 7.42392ZM8.354 7.42392L8.25632 6.64245H9.71767L9.61998 7.42392H8.354ZM9.52621 8.20539L9.42852 8.98686H8.54937L8.45169 8.20539H9.52621ZM7.47485 6.64245L7.57254 7.42392H6.94736L6.752 6.64245H7.47485ZM7.14664 8.20539H7.67022L7.7679 8.98686H7.3381L7.14664 8.20539ZM10.2139 8.98686L10.3116 8.20539H10.8352L10.6398 8.98686H10.2139Z" fill="#3F3679"/>
<path d="M6.25171 11.3313C6.25171 11.5631 6.32046 11.7898 6.44926 11.9825C6.57806 12.1753 6.76114 12.3255 6.97533 12.4143C7.18952 12.503 7.42521 12.5262 7.6526 12.481C7.87998 12.4357 8.08885 12.3241 8.25278 12.1602C8.41672 11.9962 8.52836 11.7874 8.57359 11.56C8.61882 11.3326 8.5956 11.0969 8.50688 10.8827C8.41816 10.6685 8.26792 10.4854 8.07515 10.3566C7.88238 10.2278 7.65575 10.1591 7.42391 10.1591C7.11302 10.1591 6.81487 10.2826 6.59504 10.5024C6.37521 10.7222 6.25171 11.0204 6.25171 11.3313ZM7.81464 11.3313C7.81464 11.4086 7.79173 11.4841 7.74879 11.5484C7.70586 11.6126 7.64483 11.6627 7.57344 11.6923C7.50204 11.7219 7.42348 11.7296 7.34768 11.7145C7.27189 11.6994 7.20226 11.6622 7.14762 11.6076C7.09297 11.5529 7.05576 11.4833 7.04068 11.4075C7.02561 11.3317 7.03335 11.2532 7.06292 11.1818C7.09249 11.1104 7.14257 11.0493 7.20683 11.0064C7.27109 10.9635 7.34663 10.9406 7.42391 10.9406C7.52754 10.9406 7.62692 10.9817 7.7002 11.055C7.77348 11.1283 7.81464 11.2277 7.81464 11.3313Z" fill="#3F3679"/>
<path d="M9.37769 11.3313C9.37769 11.5631 9.44643 11.7898 9.57524 11.9825C9.70404 12.1753 9.88711 12.3255 10.1013 12.4143C10.3155 12.503 10.5512 12.5262 10.7786 12.481C11.006 12.4357 11.2148 12.3241 11.3788 12.1602C11.5427 11.9962 11.6543 11.7874 11.6996 11.56C11.7448 11.3326 11.7216 11.0969 11.6329 10.8827C11.5441 10.6685 11.3939 10.4854 11.2011 10.3566C11.0084 10.2278 10.7817 10.1591 10.5499 10.1591C10.239 10.1591 9.94085 10.2826 9.72102 10.5024C9.50118 10.7222 9.37769 11.0204 9.37769 11.3313ZM10.9406 11.3313C10.9406 11.4086 10.9177 11.4841 10.8748 11.5484C10.8318 11.6126 10.7708 11.6627 10.6994 11.6923C10.628 11.7219 10.5495 11.7296 10.4737 11.7145C10.3979 11.6994 10.3282 11.6622 10.2736 11.6076C10.219 11.5529 10.1817 11.4833 10.1667 11.4075C10.1516 11.3317 10.1593 11.2532 10.1889 11.1818C10.2185 11.1104 10.2686 11.0493 10.3328 11.0064C10.3971 10.9635 10.4726 10.9406 10.5499 10.9406C10.6535 10.9406 10.7529 10.9817 10.8262 11.055C10.8995 11.1283 10.9406 11.2277 10.9406 11.3313Z" fill="#3F3679"/>
<path d="M16.8014 14.8479H11.3312C11.2275 14.8479 11.1281 14.8891 11.0549 14.9623C10.9816 15.0356 10.9404 15.135 10.9404 15.2386C10.9404 15.3423 10.9816 15.4416 11.0549 15.5149C11.1281 15.5882 11.2275 15.6294 11.3312 15.6294H16.8014C16.9051 15.6294 17.0045 15.5882 17.0777 15.5149C17.151 15.4416 17.1922 15.3423 17.1922 15.2386C17.1922 15.135 17.151 15.0356 17.0777 14.9623C17.0045 14.8891 16.9051 14.8479 16.8014 14.8479Z" fill="#3F3679"/>
<path d="M24.6162 13.5897V10.5498C24.6162 10.4797 24.5973 10.4109 24.5615 10.3506L22.6625 7.20124C22.49 6.91332 22.2462 6.6747 21.9547 6.5084C21.6631 6.34209 21.3337 6.2537 20.998 6.25176H16.8015V3.51662C16.8015 3.41299 16.7604 3.3136 16.6871 3.24033C16.6138 3.16705 16.5144 3.12589 16.4108 3.12589H3.12585C3.02222 3.12589 2.92283 3.16705 2.84956 3.24033C2.77628 3.3136 2.73511 3.41299 2.73511 3.51662V13.5897C2.56046 13.7485 2.43779 13.9562 2.38316 14.1858C2.32852 14.4154 2.34447 14.6562 2.42891 14.8766C2.51335 15.097 2.66235 15.2867 2.85642 15.421C3.05048 15.5554 3.28057 15.628 3.51658 15.6294H4.29805C4.40168 15.6294 4.50106 15.5882 4.57434 15.5149C4.64761 15.4416 4.68878 15.3423 4.68878 15.2386C4.68878 15.135 4.64761 15.0356 4.57434 14.9623C4.50106 14.8891 4.40168 14.8479 4.29805 14.8479H3.51658C3.41295 14.8479 3.31357 14.8067 3.24029 14.7335C3.16701 14.6602 3.12585 14.5608 3.12585 14.4572C3.12585 14.3535 3.16701 14.2542 3.24029 14.1809C3.31357 14.1076 3.41295 14.0664 3.51658 14.0664H5.07951C5.18314 14.0664 5.28253 14.0253 5.35581 13.952C5.42908 13.8787 5.47025 13.7793 5.47025 13.6757C5.47025 13.5721 5.42908 13.4727 5.35581 13.3994C5.28253 13.3261 5.18314 13.285 5.07951 13.285H3.51658V3.90735H16.0201V13.285H10.5498C10.4462 13.285 10.3468 13.3261 10.2735 13.3994C10.2002 13.4727 10.1591 13.5721 10.1591 13.6757C10.1591 13.7793 10.2002 13.8787 10.2735 13.952C10.3468 14.0253 10.4462 14.0664 10.5498 14.0664H17.583C17.6866 14.0664 17.786 14.0253 17.8593 13.952C17.9326 13.8787 17.9737 13.7793 17.9737 13.6757C17.9737 13.5721 17.9326 13.4727 17.8593 13.3994C17.786 13.3261 17.6866 13.285 17.583 13.285H16.8015V7.03322H20.998C21.2004 7.03353 21.3993 7.08624 21.5752 7.18621C21.7512 7.28618 21.8983 7.43001 22.0022 7.60369L22.1272 7.81469H18.7552C18.6516 7.81469 18.5522 7.85586 18.4789 7.92913C18.4056 8.00241 18.3645 8.1018 18.3645 8.20542V10.5498C18.3645 10.6535 18.4056 10.7528 18.4789 10.8261C18.5522 10.8994 18.6516 10.9406 18.7552 10.9406H23.8347V13.285H23.0533C22.9496 13.285 22.8503 13.3261 22.777 13.3994C22.7037 13.4727 22.6625 13.5721 22.6625 13.6757C22.6625 13.7793 22.7037 13.8787 22.777 13.952C22.8503 14.0253 22.9496 14.0664 23.0533 14.0664H23.8347C23.9384 14.0664 24.0378 14.1076 24.111 14.1809C24.1843 14.2542 24.2255 14.3535 24.2255 14.4572C24.2255 14.5608 24.1843 14.6602 24.111 14.7335C24.0378 14.8067 23.9384 14.8479 23.8347 14.8479C23.7311 14.8479 23.6317 14.8891 23.5584 14.9623C23.4852 15.0356 23.444 15.135 23.444 15.2386C23.444 15.3423 23.4852 15.4416 23.5584 15.5149C23.6317 15.5882 23.7311 15.6294 23.8347 15.6294C24.0707 15.628 24.3008 15.5554 24.4949 15.421C24.689 15.2867 24.838 15.097 24.9224 14.8766C25.0068 14.6562 25.0228 14.4154 24.9682 14.1858C24.9135 13.9562 24.7909 13.7485 24.6162 13.5897ZM19.1459 8.59616H22.5961L23.5339 10.1591H19.1459V8.59616Z" fill="#3F3679"/>
<path d="M7.81484 13.285C7.1966 13.285 6.59224 13.4683 6.0782 13.8118C5.56415 14.1553 5.1635 14.6434 4.92691 15.2146C4.69032 15.7858 4.62842 16.4143 4.74903 17.0207C4.86964 17.627 5.16735 18.184 5.60451 18.6212C6.04167 19.0583 6.59865 19.356 7.20501 19.4767C7.81137 19.5973 8.43988 19.5354 9.01106 19.2988C9.58223 19.0622 10.0704 18.6615 10.4139 18.1475C10.7574 17.6334 10.9407 17.0291 10.9407 16.4108C10.9407 15.5818 10.6114 14.7867 10.0252 14.2005C9.43895 13.6143 8.64387 13.285 7.81484 13.285ZM7.81484 18.7552C7.35116 18.7552 6.89789 18.6178 6.51236 18.3601C6.12682 18.1025 5.82633 17.7364 5.64889 17.308C5.47145 16.8796 5.42502 16.4082 5.51548 15.9535C5.60594 15.4987 5.82922 15.081 6.15709 14.7531C6.48496 14.4252 6.9027 14.2019 7.35747 14.1115C7.81224 14.021 8.28362 14.0675 8.712 14.2449C9.14038 14.4223 9.50653 14.7228 9.76414 15.1084C10.0217 15.4939 10.1592 15.9472 10.1592 16.4108C10.1592 17.0326 9.91224 17.6289 9.47258 18.0686C9.03292 18.5082 8.43661 18.7552 7.81484 18.7552Z" fill="#3F3679"/>
<path d="M8.98685 16.0201C8.88322 16.0201 8.78383 16.0613 8.71056 16.1345C8.63728 16.2078 8.59611 16.3072 8.59611 16.4108C8.59611 16.5654 8.55028 16.7165 8.46441 16.845C8.37854 16.9735 8.25649 17.0737 8.1137 17.1328C7.97091 17.192 7.81378 17.2074 7.66219 17.1773C7.5106 17.1471 7.37135 17.0727 7.26206 16.9634C7.15277 16.8541 7.07835 16.7149 7.04819 16.5633C7.01804 16.4117 7.03352 16.2546 7.09266 16.1118C7.15181 15.969 7.25197 15.8469 7.38048 15.7611C7.509 15.6752 7.66009 15.6294 7.81465 15.6294C7.91827 15.6294 8.01766 15.5882 8.09094 15.5149C8.16421 15.4416 8.20538 15.3423 8.20538 15.2386C8.20538 15.135 8.16421 15.0356 8.09094 14.9623C8.01766 14.8891 7.91827 14.8479 7.81465 14.8479C7.50553 14.8479 7.20335 14.9396 6.94632 15.1113C6.6893 15.283 6.48898 15.5271 6.37068 15.8127C6.25239 16.0983 6.22143 16.4126 6.28174 16.7157C6.34205 17.0189 6.4909 17.2974 6.70948 17.516C6.92806 17.7346 7.20655 17.8834 7.50973 17.9437C7.81291 18.004 8.12717 17.9731 8.41275 17.8548C8.69834 17.7365 8.94244 17.5362 9.11418 17.2792C9.28592 17.0221 9.37758 16.72 9.37758 16.4108C9.37758 16.3072 9.33641 16.2078 9.26314 16.1345C9.18986 16.0613 9.09048 16.0201 8.98685 16.0201Z" fill="#3F3679"/>
<path d="M20.3181 14.8479C19.9035 14.8479 19.506 15.0126 19.2129 15.3057C18.9198 15.5988 18.7551 15.9963 18.7551 16.4108C18.7551 16.5145 18.7963 16.6138 18.8696 16.6871C18.9428 16.7604 19.0422 16.8016 19.1459 16.8016C19.2495 16.8016 19.3489 16.7604 19.4222 16.6871C19.4954 16.6138 19.5366 16.5145 19.5366 16.4108C19.5366 16.2563 19.5824 16.1052 19.6683 15.9767C19.7542 15.8482 19.8762 15.748 20.019 15.6889C20.1618 15.6297 20.3189 15.6142 20.4705 15.6444C20.6221 15.6745 20.7614 15.749 20.8706 15.8583C20.9799 15.9675 21.0544 16.1068 21.0845 16.2584C21.1147 16.41 21.0992 16.5671 21.04 16.7099C20.9809 16.8527 20.8807 16.9747 20.7522 17.0606C20.6237 17.1465 20.4726 17.1923 20.3181 17.1923C20.2144 17.1923 20.115 17.2335 20.0418 17.3067C19.9685 17.38 19.9273 17.4794 19.9273 17.583C19.9273 17.6867 19.9685 17.7861 20.0418 17.8593C20.115 17.9326 20.2144 17.9738 20.3181 17.9738C20.7326 17.9738 21.1301 17.8091 21.4232 17.516C21.7163 17.2229 21.881 16.8254 21.881 16.4108C21.881 15.9963 21.7163 15.5988 21.4232 15.3057C21.1301 15.0126 20.7326 14.8479 20.3181 14.8479Z" fill="#3F3679"/>
<path d="M20.3183 13.285C19.7 13.285 19.0957 13.4683 18.5816 13.8118C18.0676 14.1553 17.6669 14.6434 17.4303 15.2146C17.1937 15.7858 17.1318 16.4143 17.2524 17.0207C17.3731 17.627 17.6708 18.184 18.1079 18.6212C18.5451 19.0583 19.1021 19.356 19.7084 19.4767C20.3148 19.5973 20.9433 19.5354 21.5145 19.2988C22.0857 19.0622 22.5738 18.6615 22.9173 18.1475C23.2608 17.6334 23.4441 17.0291 23.4441 16.4108C23.4441 15.5818 23.1148 14.7867 22.5286 14.2005C21.9424 13.6143 21.1473 13.285 20.3183 13.285ZM20.3183 18.7552C19.8546 18.7552 19.4013 18.6178 19.0158 18.3601C18.6302 18.1025 18.3298 17.7364 18.1523 17.308C17.9749 16.8796 17.9284 16.4082 18.0189 15.9535C18.1094 15.4987 18.3326 15.081 18.6605 14.7531C18.9884 14.4252 19.4061 14.2019 19.8609 14.1115C20.3157 14.021 20.787 14.0675 21.2154 14.2449C21.6438 14.4223 22.0099 14.7228 22.2676 15.1084C22.5252 15.4939 22.6627 15.9472 22.6627 16.4108C22.6627 17.0326 22.4157 17.6289 21.976 18.0686C21.5363 18.5082 20.94 18.7552 20.3183 18.7552Z" fill="#3F3679"/>
<path d="M0.390734 0.781468H1.1722C1.27583 0.781468 1.37522 0.740301 1.44849 0.667024C1.52177 0.593747 1.56294 0.494363 1.56294 0.390734C1.56294 0.287105 1.52177 0.18772 1.44849 0.114443C1.37522 0.0411666 1.27583 0 1.1722 0H0.390734C0.287105 0 0.18772 0.0411666 0.114443 0.114443C0.0411665 0.18772 0 0.287105 0 0.390734C0 0.494363 0.0411665 0.593747 0.114443 0.667024C0.18772 0.740301 0.287105 0.781468 0.390734 0.781468Z" fill="#3F3679"/>
<path d="M2.73497 0.781468H8.98671C9.09034 0.781468 9.18973 0.740301 9.263 0.667024C9.33628 0.593747 9.37745 0.494363 9.37745 0.390734C9.37745 0.287105 9.33628 0.18772 9.263 0.114443C9.18973 0.0411666 9.09034 0 8.98671 0H2.73497C2.63134 0 2.53196 0.0411666 2.45868 0.114443C2.3854 0.18772 2.34424 0.287105 2.34424 0.390734C2.34424 0.494363 2.3854 0.593747 2.45868 0.667024C2.53196 0.740301 2.63134 0.781468 2.73497 0.781468Z" fill="#3F3679"/>
<path d="M2.73497 2.34439H3.51644C3.62007 2.34439 3.71945 2.30323 3.79273 2.22995C3.86601 2.15668 3.90717 2.05729 3.90717 1.95366C3.90717 1.85003 3.86601 1.75065 3.79273 1.67737C3.71945 1.60409 3.62007 1.56293 3.51644 1.56293H2.73497C2.63134 1.56293 2.53196 1.60409 2.45868 1.67737C2.3854 1.75065 2.34424 1.85003 2.34424 1.95366C2.34424 2.05729 2.3854 2.15668 2.45868 2.22995C2.53196 2.30323 2.63134 2.34439 2.73497 2.34439Z" fill="#3F3679"/>
<path d="M4.68896 1.95366C4.68896 2.05729 4.73013 2.15668 4.80341 2.22995C4.87669 2.30323 4.97607 2.34439 5.0797 2.34439H12.1129C12.2165 2.34439 12.3159 2.30323 12.3892 2.22995C12.4625 2.15668 12.5036 2.05729 12.5036 1.95366C12.5036 1.85003 12.4625 1.75065 12.3892 1.67737C12.3159 1.60409 12.2165 1.56293 12.1129 1.56293H5.0797C4.97607 1.56293 4.87669 1.60409 4.80341 1.67737C4.73013 1.75065 4.68896 1.85003 4.68896 1.95366Z" fill="#3F3679"/>
<path d="M1.1722 17.1923H0.390734C0.287105 17.1923 0.18772 17.2335 0.114443 17.3067C0.0411665 17.38 0 17.4794 0 17.583C0 17.6867 0.0411665 17.786 0.114443 17.8593C0.18772 17.9326 0.287105 17.9738 0.390734 17.9738H1.1722C1.27583 17.9738 1.37522 17.9326 1.44849 17.8593C1.52177 17.786 1.56294 17.6867 1.56294 17.583C1.56294 17.4794 1.52177 17.38 1.44849 17.3067C1.37522 17.2335 1.27583 17.1923 1.1722 17.1923Z" fill="#3F3679"/>
<path d="M3.51644 17.1923H2.73497C2.63134 17.1923 2.53196 17.2335 2.45868 17.3067C2.3854 17.38 2.34424 17.4794 2.34424 17.583C2.34424 17.6867 2.3854 17.786 2.45868 17.8593C2.53196 17.9326 2.63134 17.9738 2.73497 17.9738H3.51644C3.62007 17.9738 3.71945 17.9326 3.79273 17.8593C3.86601 17.786 3.90717 17.6867 3.90717 17.583C3.90717 17.4794 3.86601 17.38 3.79273 17.3067C3.71945 17.2335 3.62007 17.1923 3.51644 17.1923Z" fill="#3F3679"/>
<path d="M2.73505 16.0201C2.73505 15.9165 2.69389 15.8171 2.62061 15.7438C2.54733 15.6705 2.44795 15.6294 2.34432 15.6294H1.56285C1.45922 15.6294 1.35984 15.6705 1.28656 15.7438C1.21329 15.8171 1.17212 15.9165 1.17212 16.0201C1.17212 16.1237 1.21329 16.2231 1.28656 16.2964C1.35984 16.3697 1.45922 16.4108 1.56285 16.4108H2.34432C2.44795 16.4108 2.54733 16.3697 2.62061 16.2964C2.69389 16.2231 2.73505 16.1237 2.73505 16.0201Z" fill="#3F3679"/>
<path d="M0.781359 4.68878C0.67773 4.68878 0.578345 4.72995 0.505068 4.80322C0.431791 4.8765 0.390625 4.97589 0.390625 5.07952C0.390625 5.18314 0.431791 5.28253 0.505068 5.35581C0.578345 5.42908 0.67773 5.47025 0.781359 5.47025H1.56283C1.66646 5.47025 1.76584 5.42908 1.83912 5.35581C1.91239 5.28253 1.95356 5.18314 1.95356 5.07952C1.95356 4.97589 1.91239 4.8765 1.83912 4.80322C1.76584 4.72995 1.66646 4.68878 1.56283 4.68878H0.781359Z" fill="#3F3679"/>
<path d="M0.390734 7.8147H1.1722C1.27583 7.8147 1.37522 7.77354 1.44849 7.70026C1.52177 7.62698 1.56294 7.5276 1.56294 7.42397C1.56294 7.32034 1.52177 7.22095 1.44849 7.14768C1.37522 7.0744 1.27583 7.03323 1.1722 7.03323H0.390734C0.287105 7.03323 0.18772 7.0744 0.114443 7.14768C0.0411665 7.22095 0 7.32034 0 7.42397C0 7.5276 0.0411665 7.62698 0.114443 7.70026C0.18772 7.77354 0.287105 7.8147 0.390734 7.8147Z" fill="#3F3679"/>
</svg>
