<svg width="25" height="19" viewBox="0 0 25 19" fill="none" xmlns="http://www.w3.org/2000/svg">
<path d="M19.6676 18.5112H5.35133C4.52891 18.5112 3.82212 17.9279 3.66612 17.1204L1.82471 7.58859H23.1942L21.3528 17.1204C21.1969 17.9279 20.49 18.5112 19.6676 18.5112Z" fill="#F4F8F8"/>
<path d="M21.1422 7.58859L19.3008 17.1204C19.1448 17.9279 18.438 18.5112 17.6156 18.5112H19.6677C20.4901 18.5112 21.1969 17.9279 21.3529 17.1204L23.1943 7.58859H21.1422Z" fill="#DAEAEF"/>
<path d="M23.952 7.88919H1.0481C0.671485 7.88919 0.366211 7.58392 0.366211 7.20731V6.28787C0.366211 5.91126 0.671485 5.60599 1.0481 5.60599H23.952C24.3285 5.60599 24.6338 5.91126 24.6338 6.28787V7.20736C24.6338 7.58392 24.3286 7.88919 23.952 7.88919Z" fill="#FC5692"/>
<path d="M23.9519 5.60599H22.6386V7.20736C22.6386 7.58392 22.3333 7.88924 21.9567 7.88924H23.952C24.3286 7.88924 24.6339 7.58397 24.6339 7.20736V6.28787C24.6338 5.91126 24.3286 5.60599 23.9519 5.60599Z" fill="#FB3580"/>
<path d="M8.36178 16.2871C8.01266 16.2871 7.70338 16.0368 7.64078 15.6811L6.87076 11.3076C6.80054 10.9089 7.06685 10.5288 7.46554 10.4586C7.86392 10.3884 8.24435 10.6547 8.31451 11.0533L9.08453 15.4269C9.15475 15.8256 8.88844 16.2057 8.48976 16.2759C8.44679 16.2835 8.40396 16.2871 8.36178 16.2871Z" fill="#D6E4EA"/>
<path d="M12.5 16.2868C12.0952 16.2868 11.767 15.9586 11.767 15.5538V11.1802C11.767 10.7754 12.0952 10.4472 12.5 10.4472C12.9048 10.4472 13.233 10.7754 13.233 11.1802V15.5538C13.233 15.9586 12.9048 16.2868 12.5 16.2868Z" fill="#D6E4EA"/>
<path d="M16.6383 16.2868C16.5961 16.2868 16.5533 16.2832 16.5103 16.2756C16.1116 16.2054 15.8453 15.8253 15.9156 15.4266L16.6856 11.053C16.7557 10.6544 17.1358 10.3881 17.5346 10.4583C17.9333 10.5285 18.1995 10.9086 18.1293 11.3073L17.3593 15.6808C17.2967 16.0366 16.9873 16.2868 16.6383 16.2868Z" fill="#D6E4EA"/>
<path d="M5.50246 6.26496L10.8443 0.664504C11.2108 0.280226 11.8195 0.265822 12.2037 0.632375C12.588 0.998929 12.6024 1.60757 12.2359 1.99185L6.89407 7.5923C6.52751 7.97658 5.91887 7.99098 5.53459 7.62443C5.15031 7.25788 5.13591 6.64923 5.50246 6.26496Z" fill="#D6E4EA"/>
<path d="M12.7963 0.631399C13.1806 0.264845 13.7892 0.27925 14.1558 0.663528L19.4976 6.26398C19.8642 6.64826 19.8498 7.2569 19.4655 7.62345C19.0812 7.99001 18.4726 7.9756 18.106 7.59132L12.7642 1.99087C12.3977 1.6066 12.412 0.997952 12.7963 0.631399Z" fill="#D6E4EA"/>
<path d="M23.952 5.23973H19.0267L14.4208 0.410715C13.9155 -0.119022 13.0734 -0.138993 12.5436 0.36633C12.5286 0.380588 12.5142 0.395237 12.5 0.410032C12.4859 0.395237 12.4715 0.380637 12.4565 0.36633C11.9267 -0.138944 11.0846 -0.119071 10.5793 0.410715L5.9733 5.23968H3.75435C3.55206 5.23968 3.38814 5.40364 3.38814 5.60589C3.38814 5.80814 3.55206 5.9721 3.75435 5.9721H5.27472L5.23746 6.01117C5.23746 6.01117 5.23746 6.01117 5.23741 6.01117C4.84059 6.42728 4.76788 7.03597 5.01153 7.52294C4.58897 7.52294 1.54624 7.52294 1.0481 7.52294C0.874074 7.52294 0.732423 7.38133 0.732423 7.20726V6.28783C0.732423 6.11375 0.874025 5.97215 1.0481 5.97215H2.03521C2.2375 5.97215 2.40142 5.80819 2.40142 5.60594C2.40142 5.40369 2.2375 5.23973 2.03521 5.23973H1.0481C0.470167 5.23973 0 5.7099 0 6.28783V7.20731C0 7.78524 0.470167 8.25541 1.0481 8.25541H1.58057L3.30655 17.1899C3.49547 18.1677 4.35538 18.8775 5.35133 18.8775H19.6676C20.6635 18.8775 21.5235 18.1678 21.7124 17.1899L21.83 16.5814C21.8683 16.3828 21.7384 16.1907 21.5398 16.1523C21.3414 16.114 21.1492 16.2439 21.1108 16.4424L20.9933 17.051C20.8708 17.6849 20.3133 18.1451 19.6677 18.1451H5.35133C4.70562 18.1451 4.14815 17.685 4.02574 17.051L2.32652 8.25536H22.6924L21.4384 14.7464C21.4001 14.945 21.53 15.137 21.7285 15.1754C21.9288 15.2141 22.1195 15.0822 22.1576 14.8853L23.4383 8.25536H23.9519C24.5298 8.25536 25 7.78519 25 7.20726V6.28783C25 5.7099 24.5299 5.23973 23.952 5.23973ZM12.5 2.24441L15.357 5.23973H9.64304L12.5 2.24441ZM5.78732 7.35839C5.54977 7.13182 5.54083 6.75423 5.76744 6.51668H5.76739L11.1092 0.916234C11.3358 0.678685 11.7134 0.669749 11.9509 0.896312C12.1828 1.1175 12.2016 1.49607 11.9708 1.73801L6.62902 7.33846C6.4024 7.57606 6.02482 7.58495 5.78732 7.35839ZM7.46525 7.52294L8.94445 5.9721H16.0556L17.5348 7.52294H7.46525ZM19.2127 7.35839C18.9752 7.58495 18.5975 7.57596 18.371 7.33851L13.0292 1.73801C12.7982 1.49582 12.8175 1.11726 13.0491 0.896312C13.2865 0.6697 13.6642 0.678685 13.8908 0.916185L19.2326 6.51664C19.4592 6.75423 19.4503 7.13182 19.2127 7.35839ZM24.2676 7.20731C24.2676 7.38138 24.126 7.52299 23.952 7.52299C23.4541 7.52299 20.4745 7.52299 19.9885 7.52299C20.2322 7.03607 20.1595 6.42733 19.7626 6.01121L19.7253 5.97215H23.952C24.126 5.97215 24.2676 6.11375 24.2676 6.28783V7.20731Z" fill="black"/>
<path d="M7.40212 10.0977C6.80377 10.203 6.4048 10.7724 6.51007 11.3708L7.28014 15.7443C7.38561 16.3434 7.95422 16.7418 8.55329 16.6363C9.15158 16.531 9.55051 15.9615 9.44524 15.3632L8.67521 10.9897C8.56999 10.3917 8.00051 9.99237 7.40212 10.0977ZM8.42629 15.915C8.22599 15.9503 8.03664 15.8175 8.00148 15.6174L7.23146 11.2439C7.19626 11.0443 7.32931 10.8542 7.52907 10.819C7.7279 10.7839 7.91877 10.9166 7.95387 11.1166L8.7239 15.4902C8.75905 15.6897 8.62604 15.8798 8.42629 15.915Z" fill="black"/>
<path d="M11.4008 11.1802V15.5537C11.4008 16.1598 11.8939 16.653 12.5 16.653C13.1061 16.653 13.5993 16.1598 13.5993 15.5537V11.1802C13.5993 10.5741 13.1061 10.081 12.5 10.081C11.8939 10.081 11.4008 10.5741 11.4008 11.1802ZM12.8668 11.1802V15.5537C12.8668 15.756 12.7023 15.9205 12.5 15.9205C12.2978 15.9205 12.1332 15.756 12.1332 15.5537V11.1802C12.1332 10.978 12.2978 10.8134 12.5 10.8134C12.7023 10.8134 12.8668 10.978 12.8668 11.1802Z" fill="black"/>
<path d="M17.5979 10.0976C17.0015 9.99275 16.4299 10.3928 16.3248 10.9896L15.5548 15.3632C15.4495 15.9614 15.8482 16.5309 16.4469 16.6364C17.0473 16.7419 17.6147 16.3423 17.7199 15.7444L18.49 11.3709C18.5953 10.7725 18.1965 10.2031 17.5979 10.0976ZM17.7686 11.2439L16.9985 15.6174C16.9634 15.8171 16.7745 15.9503 16.5738 15.915C16.3742 15.8799 16.241 15.6899 16.2762 15.4902L17.0462 11.1166C17.081 10.9185 17.2705 10.784 17.471 10.819C17.6706 10.8542 17.8038 11.0441 17.7686 11.2439Z" fill="black"/>
</svg>
