<svg id="Layer_1" data-name="Layer 1" xmlns="http://www.w3.org/2000/svg" viewBox="0 0 371.2 194.96"><defs><style>.cls-1{fill:#fff;}</style></defs><path class="cls-1" d="M137.51,29.48c1.2,0,1.9.4,1.9,1.1v11.1c0,.2.2.4.6.5h.2c.7,0,1.2-.5,1.6-1.5a53.26,53.26,0,0,0,3.1-5.9,54.31,54.31,0,0,0,2.7-4.8,3,3,0,0,1,2.1-.5h1.6c1,0,1.6.2,1.6.5,0,.1-1.9,3.5-5.9,10.2-1.3,2.1-2,3.3-2,3.7v.4c.4.9,2.2,4,5.3,9.2,1.7,2.9,2.6,4.4,2.6,4.5,0,.4-.7.5-2.1.6h-1.1c-1.2,0-2-.2-2.3-.6q-3.15-6.15-6.3-11.7a1.08,1.08,0,0,0-.8-.2c-.6,0-.9.2-.9.5v10.7c0,.9-.8,1.3-2.3,1.3h-.6c-1.6,0-2.4-.4-2.4-1.3V30.78a1.24,1.24,0,0,1,1.4-1.3Z"/><path class="cls-1" d="M160.31,29.58h5.4c4.1,0,6.8.6,8,1.7,1.2,1.4,1.8,2.4,1.8,3.1.1,0,.2.5.2,1.6v2.8c0,2.2-.7,3.7-2.1,4.4a26.94,26.94,0,0,1-2.9,1.6l-.2.4v.1c0,.4,1.4,3.2,4.1,8.1l2.6,4.7c0,.3-.6.6-1.9.6h-.9c-2,0-3-.4-3-1.3-1.8-3.8-2.7-5.7-2.7-5.8-.8-1.8-1.7-3.6-2.6-5.4a4.88,4.88,0,0,0-.7-.3h-.9a.7.7,0,0,0-.6.8v10c0,1.3-.4,1.9-1.3,1.9-.5,0-1,.1-1.4.1h-.8c-1.3,0-2-.3-2-.8V30.38C158.41,29.88,159.11,29.58,160.31,29.58Zm3.7,4.7v7c0,.7.4,1,1.3,1h2a3.17,3.17,0,0,0,2.9-1.5v-6.1c0-1.1-1.2-1.6-3.6-1.6h-.9C164.61,33.08,164,33.48,164,34.28Z"/><path class="cls-1" d="M188.31,29.48h4c1.8,0,2.7.8,2.7,2.2l3.5,14.7c.7,3.1,1.3,5.7,1.7,7.8l.8,3.5v.1c0,.4-.7.7-2.2.7h-.4c-1.8,0-2.6-.3-2.6-.9-.6-3.4-1.1-5-1.6-5a2.54,2.54,0,0,0-1.2-.2h-2.6a6.6,6.6,0,0,1-1.4-.1c-1.7,0-2.6.4-2.6,1.1a45.82,45.82,0,0,0-1,4.6c-.2.4-1,.6-2.3.6h-.9c-1.4,0-2.1-.2-2.1-.7,1-4.1,1.6-7,1.8-8.6a58.4,58.4,0,0,0,1.4-5.8l1.3-5.5c.8-3.2,1.2-4.9,1.2-5a9.47,9.47,0,0,0,.7-2.9A2.61,2.61,0,0,1,188.31,29.48Zm-.9,18.3v.1c0,.6.7.8,2,.8h2q2.1,0,2.1-1.2a17.73,17.73,0,0,0-.8-4l-1-4.9c0-1.5-.4-2.2-1.3-2.2-.6,0-1.1,1-1.3,3Z"/><path class="cls-1" d="M207.21,29.58h10.7c1.3,0,2,.4,2,1.2a15.77,15.77,0,0,1-1.1,3.7c-2.5,6.2-3.9,9.7-4.1,10.6a88.27,88.27,0,0,0-3.5,8.9v.3a1.42,1.42,0,0,0,1.4.8h5.5c1.5,0,2.2.3,2.2.8v2c0,.5-.7.8-2,.8h-11.6c-1.3,0-2-.3-2-.8v-.6c0-.3,2.5-6.8,7.6-19.6a24.3,24.3,0,0,0,1.3-3.8v-.2c0-.3-.5-.5-1.4-.6h-5c-1.3,0-2-.3-2-1v-1.3C205.21,30,205.81,29.58,207.21,29.58Z"/><path class="cls-1" d="M226.21,29.58h1.4a2.75,2.75,0,0,1,2.3.8c1,2.8,2.4,6.1,4,10l.4.2h.8c.5,0,1.1-1.2,1.9-3.6.2-.4.8-1.9,1.8-4.6.6-1.9,1.2-2.8,1.9-2.8.3,0,.6-.1.9-.1h1.6c1.1,0,1.7.2,1.7.7,0,.2-1.9,4.3-5.7,12.4a11.1,11.1,0,0,0-1.6,3.9v11.3c0,.5-.7.8-2.2.8h-1.2c-1.4,0-2.1-.3-2.1-1V46.78a7.61,7.61,0,0,0-1-3c-2.4-5-4.6-9.6-6.4-13.8C224.71,29.78,225.21,29.58,226.21,29.58Z"/><path class="cls-1" d="M180.21,66.38a3.53,3.53,0,0,0-.8-1.3,3.77,3.77,0,0,0-1.5-.9,5.66,5.66,0,0,0-1.8-.3c-.6,0-1.4-.1-2.4-.1a13.47,13.47,0,0,0-2.2.1,4.67,4.67,0,0,0-1.7.3,3.77,3.77,0,0,0-1.5.9,5.67,5.67,0,0,0-.8,1.3l-18.6,50.9a6.53,6.53,0,0,0-.5,2,2.17,2.17,0,0,0,.8,2,3.26,3.26,0,0,0,1.9.8,16.2,16.2,0,0,0,2.2.1,14.77,14.77,0,0,0,2.1-.1,7.49,7.49,0,0,0,1.6-.4,2.73,2.73,0,0,0,1.2-.9,3.88,3.88,0,0,0,.6-1.1l3.4-9.9a3.43,3.43,0,0,1,3.2-2.3h16a3.48,3.48,0,0,1,3.2,2.2l3.6,10.1.1.1a4.05,4.05,0,0,0,.5.9,3,3,0,0,0,1.3.9,4.53,4.53,0,0,0,1.6.3,14.12,14.12,0,0,0,2.2.1,15.52,15.52,0,0,0,2.3-.1,3.18,3.18,0,0,0,2-.8,2.17,2.17,0,0,0,.8-2,6.47,6.47,0,0,0-.4-2Zm-4,32.3h-5.4a3.37,3.37,0,0,1-3.4-3.4,3.59,3.59,0,0,1,.2-1.1l2.7-7.7a3.46,3.46,0,0,1,4.4-2.1,3.37,3.37,0,0,1,2.1,2.1l2.7,7.7a3.35,3.35,0,0,1-2.1,4.3A5,5,0,0,1,176.21,98.68Z"/><path class="cls-1" d="M232.51,113.08h-18.1a3.35,3.35,0,0,1-3.4-3.3,4.14,4.14,0,0,1,.5-1.9L232.11,76a10.14,10.14,0,0,0,1-1.6,6.11,6.11,0,0,0,.7-1.4,5.73,5.73,0,0,0,.4-1.4,7.08,7.08,0,0,0,.1-1.4v-1.7a4.11,4.11,0,0,0-1.1-3.1,4.36,4.36,0,0,0-2.9-1.1h-30.8a2.82,2.82,0,0,0-1.5.4,2.54,2.54,0,0,0-1.1,1.2,3.71,3.71,0,0,0-.4,1.4,13.65,13.65,0,0,0,0,3.3,5.73,5.73,0,0,0,.4,1.4,2,2,0,0,0,1.1,1.1,4.19,4.19,0,0,0,1.5.4h16.3a3.35,3.35,0,0,1,3.4,3.3,4.14,4.14,0,0,1-.5,1.9L198,110.78c-.4.6-.7,1.1-1,1.6a6.11,6.11,0,0,0-.7,1.4,6.47,6.47,0,0,0-.4,1.3,4.87,4.87,0,0,0-.1,1.2v1.6a4.2,4.2,0,0,0,1.1,3.2,4.36,4.36,0,0,0,2.9,1.1h32.7a2.82,2.82,0,0,0,1.5-.4,2.94,2.94,0,0,0,1-1.2,3.26,3.26,0,0,0,.4-1.4,8.6,8.6,0,0,0,.1-1.6,5.58,5.58,0,0,0-.6-3.1A2.77,2.77,0,0,0,232.51,113.08Z"/><path class="cls-1" d="M263.41,66.68a3.53,3.53,0,0,0-.8-1.3,3.77,3.77,0,0,0-1.5-.9,5.66,5.66,0,0,0-1.8-.3c-.6,0-1.4-.1-2.4-.1a13.47,13.47,0,0,0-2.2.1,4.67,4.67,0,0,0-1.7.3,3.77,3.77,0,0,0-1.5.9,5.67,5.67,0,0,0-.8,1.3l-18.6,50.9a4.48,4.48,0,0,0-.4,2,2.17,2.17,0,0,0,.8,2,3.26,3.26,0,0,0,1.9.8,16.2,16.2,0,0,0,2.2.1,14.77,14.77,0,0,0,2.1-.1,4.19,4.19,0,0,0,1.6-.4,2.73,2.73,0,0,0,1.2-.9,3.88,3.88,0,0,0,.6-1.1l3.4-9.9a3.43,3.43,0,0,1,3.2-2.3h16a3.48,3.48,0,0,1,3.2,2.2l3.6,10.1v.1a4.05,4.05,0,0,0,.5.9,3,3,0,0,0,1.3.9,4.15,4.15,0,0,0,1.6.3,14.12,14.12,0,0,0,2.2.1,15.52,15.52,0,0,0,2.3-.1,3.72,3.72,0,0,0,2-.7,2.35,2.35,0,0,0,.8-2.1,6.53,6.53,0,0,0-.5-2Zm-4,32.3H254a3.37,3.37,0,0,1-3.4-3.4,3.59,3.59,0,0,1,.2-1.1l2.7-7.7a3.46,3.46,0,0,1,4.4-2.1,3.37,3.37,0,0,1,2.1,2.1l2.7,7.7a3.35,3.35,0,0,1-2.1,4.3A2.54,2.54,0,0,1,259.41,99Z"/><path class="cls-1" d="M303.11,66.68a3.53,3.53,0,0,0-.8-1.3,3.77,3.77,0,0,0-1.5-.9,5.66,5.66,0,0,0-1.8-.3c-.6,0-1.4-.1-2.4-.1a13.47,13.47,0,0,0-2.2.1,4.67,4.67,0,0,0-1.7.3,3.77,3.77,0,0,0-1.5.9,5.67,5.67,0,0,0-.8,1.3l-18.6,50.9a6.53,6.53,0,0,0-.5,2,2.17,2.17,0,0,0,.8,2,3.55,3.55,0,0,0,2,.8,16.2,16.2,0,0,0,2.2.1,14.77,14.77,0,0,0,2.1-.1,4.19,4.19,0,0,0,1.6-.4,3.45,3.45,0,0,0,1.2-.9,2.38,2.38,0,0,0,.6-1.1l3.4-9.9a3.43,3.43,0,0,1,3.2-2.3h16a3.48,3.48,0,0,1,3.2,2.2l3.6,10.1v.1a4.05,4.05,0,0,0,.5.9,3,3,0,0,0,1.3.9,4.53,4.53,0,0,0,1.6.3,14.12,14.12,0,0,0,2.2.1,15.52,15.52,0,0,0,2.3-.1,3.72,3.72,0,0,0,2-.7,2.35,2.35,0,0,0,.8-2.1,4.55,4.55,0,0,0-.5-2Zm-4,32.3h-5.4a3.37,3.37,0,0,1-3.4-3.4,3.59,3.59,0,0,1,.2-1.1l2.7-7.7a3.46,3.46,0,0,1,4.4-2.1,3.37,3.37,0,0,1,2.1,2.1l2.7,7.7a3.35,3.35,0,0,1-2.1,4.3,2.54,2.54,0,0,1-1.2.2Z"/><path class="cls-1" d="M357.61,118.28c-.1-.4-.4-1.2-.8-2.3l-5-12.1c-.6-1.4-1.2-2.7-1.8-3.8a16.46,16.46,0,0,0-2-3.1,17.53,17.53,0,0,0-2.3-2.4l-.1-.1a11.78,11.78,0,0,0,1.9-1.1,16.41,16.41,0,0,0,3.7-3.2,12.44,12.44,0,0,0,2.5-4.3,14.18,14.18,0,0,0,.8-5.4,18.36,18.36,0,0,0-.9-5.7,13.63,13.63,0,0,0-7.4-8,20.81,20.81,0,0,0-6-1.8h-.3a16.59,16.59,0,0,0-2.4-.2c-.9,0-2.2-.1-3.6-.1h-11.8a4.78,4.78,0,0,0-2.8,1,4.35,4.35,0,0,0-1.5,3.5V120a2.3,2.3,0,0,0,.4,1.4,2.43,2.43,0,0,0,1.4,1,7,7,0,0,0,1.4.3,20.05,20.05,0,0,0,4,0l1.4-.3a3,3,0,0,0,1.3-.9,2.69,2.69,0,0,0,.5-1.5v-18.6a3.37,3.37,0,0,1,3.4-3.4h0a11.48,11.48,0,0,1,3.7.6,7.82,7.82,0,0,1,2.6,1.7,11,11,0,0,1,2,2.8q.9,1.8,1.8,3.9l5.1,12.9a3.38,3.38,0,0,0,.6,1.2,3.48,3.48,0,0,0,1.3,1.1,7.49,7.49,0,0,0,1.6.4,13.4,13.4,0,0,0,2,.1,16.2,16.2,0,0,0,2.2-.1,4.71,4.71,0,0,0,1.6-.4,2.36,2.36,0,0,0,1.4-1.2,2.77,2.77,0,0,0,.3-1.3A3.18,3.18,0,0,0,357.61,118.28Zm-16.1-31.7a8.7,8.7,0,0,1-3,1.6,14,14,0,0,1-4.5.6h-2.3a3.37,3.37,0,0,1-3.4-3.4h0v-8.8a3.37,3.37,0,0,1,3.4-3.4H333a33.26,33.26,0,0,1,3.4.1,15.52,15.52,0,0,1,2.1.4,7.22,7.22,0,0,1,4,2.6,7.59,7.59,0,0,1,1.2,4.6,9.06,9.06,0,0,1-.6,3.2A4.94,4.94,0,0,1,341.51,86.58Z"/><path class="cls-1" d="M132.41,111a21.84,21.84,0,0,1,15.6,7.4c7-6.6,9-16.1,6-28.6-4.8-20.1-17.1-27.9-36.8-23.2,7.5-1.8,9.8-8.9,6.8-21.3-3.3-14-12.9-19.1-28.6-15.3l-55,13.1c-3.2.8-4.5,2.8-3.8,6.2L58,139c.8,3.3,3.2,4.5,7.1,3.6l1.3-.3a14.6,14.6,0,0,1,28.4-6.8h0l14.8-3.5A22,22,0,0,1,132.41,111Zm-60.5-37.8-5.5-19.5c-.9-3.4.7-5.6,4.9-6.7l5.1-1.3c11-2.9,18,.9,21,11.6q3.75,13.5-12.9,17.7l-5.2,1.3C75.21,77.38,72.81,76.38,71.91,73.18Zm17.9,45.6c-3.9,1-6.2-.2-7.1-3.5l-6-23.3c-.8-3.1.8-5.2,4.7-6.2l10.3-2.6q21.6-5.55,25.8,11.1c3,10.9-2.7,18.1-17.1,21.8Z"/><circle class="cls-1" cx="131.51" cy="132.98" r="16.9"/><path class="cls-1" d="M53.81,34.08l-2.2-8.9c0-.2-.1-.3-.1-.5-.1-1.1-.9-5.9-7.8-7.2-9.1-2.2-25.6-7.6-29.1-8.6-.2-.1-.5-.2-.7-.3-1.5-.9-8-4.2-9.2,3.9v.4c0,1.1.2,5.7,4.5,7.1s21.8,6,28.9,7.6a2.66,2.66,0,0,1,2.1,2.2l1.7,7.2a2.84,2.84,0,0,0,3.4,2.1h.1l6.2-1.6A2.72,2.72,0,0,0,53.81,34.08Z"/><path class="cls-1" d="M40,40l-1.2-5v-.3c0-.6-.5-3.3-4.4-4.1-5.2-1.2-11.5-3.3-13.4-3.9a.76.76,0,0,1-.4-.2c-.8-.5-4.5-2.4-5.2,2.2v.2c0,.6.1,3.2,2.5,4s9.2,2.4,13.3,3.3a1.63,1.63,0,0,1,1.2,1.2l1,4.1a1.64,1.64,0,0,0,2,1.2h0l3.5-.9A1.33,1.33,0,0,0,40,40Z"/><circle class="cls-1" cx="80.51" cy="138.58" r="10.9"/><path class="cls-1" d="M362.06,71.6H360.5v3h-1.41V66.83h2.84a3.38,3.38,0,0,1,2.15.6,2.11,2.11,0,0,1,.76,1.75,2.13,2.13,0,0,1-.39,1.3,2.47,2.47,0,0,1-1.09.81l1.82,3.22v.07h-1.51Zm-1.56-1.08h1.44a1.61,1.61,0,0,0,1.1-.35,1.16,1.16,0,0,0,.4-.94,1.24,1.24,0,0,0-.37-1,1.54,1.54,0,0,0-1.1-.35H360.5Z"/><path class="cls-1" d="M361.81,76.93a6.13,6.13,0,1,1,6.12-6.12A6.13,6.13,0,0,1,361.81,76.93Zm0-11.43a5.31,5.31,0,1,0,5.3,5.31A5.31,5.31,0,0,0,361.81,65.5Z"/><path class="cls-1" d="M6.35,175c.17,2.05.94,3.8,2.89,3.8s2.66-1.29,2.66-3.31-.82-3.22-3.41-4.65C5.18,169,3.83,167.37,3.83,164s2-6,5.43-6c4.27,0,5.35,3.38,5.41,6.26h-3c-.11-1.24-.4-3.41-2.43-3.41-1.59,0-2.28,1.21-2.28,2.86,0,1.83.71,2.69,3.1,4,3.55,1.91,5,3.77,5,7.46s-1.89,6.47-5.91,6.47c-4.38,0-5.75-3.24-5.88-6.64Z"/><path class="cls-1" d="M28.76,172.39c0,6.24-1.94,9.19-5.56,9.19s-5.48-2.82-5.48-9.11c0-6.12,2.18-8.91,5.64-8.91S28.76,166.56,28.76,172.39Zm-8,.07c0,4.06.7,6.16,2.47,6.16s2.39-2.09,2.39-6.14-.69-5.94-2.41-5.94S20.81,168.4,20.81,172.46Z"/><path class="cls-1" d="M42.2,176.26c0,2.41,0,4.11,0,5H39.32a18.41,18.41,0,0,1-.13-2,3.34,3.34,0,0,1-3.44,2.34c-2,0-3.78-1.08-3.78-5.2V163.86H35v11.69c0,1.88.39,3,1.81,3s2.3-.94,2.3-4V163.86H42.2Z"/><path class="cls-1" d="M44.79,163.86h2v-4.44h3v4.44H52.3v2.91H49.87v10.15c0,1.07.18,1.7,1.28,1.7a4.4,4.4,0,0,0,.93-.07v2.6a5,5,0,0,1-2,.33c-2.2,0-3.24-1-3.24-3.95V166.77h-2Z"/><path class="cls-1" d="M58,157.2v8.48a3.48,3.48,0,0,1,3.47-2.14c2.4,0,3.78,1.78,3.78,5.39v12.32H62.19V169.64c0-1.84-.36-3.06-2-3.06S58,168.13,58,170.68v10.57H54.94V157.2Z"/><path class="cls-1" d="M78.2,175l-1.15,6.28H74l4.68-22.92h4l4.77,22.92H84.16L83,175Zm4.23-3.11c-.88-4.81-1.53-8.15-1.83-10.21h-.08c-.25,2.07-.94,5.74-1.76,10.21Z"/><path class="cls-1" d="M92.31,176.07c0,1.41.67,2.76,2.2,2.76,1.32,0,2-.85,2-2.14s-.59-2.14-2.44-2.95c-3.42-1.46-4.31-2.85-4.31-5.34s1.28-4.86,4.71-4.86c3.77,0,4.73,3,4.74,5.26H96.23c0-.69-.1-2.54-1.88-2.54-1.1,0-1.65.79-1.65,1.89s.54,1.77,2.45,2.59c3.1,1.34,4.34,2.68,4.34,5.55,0,3.34-1.81,5.26-5.11,5.26s-5-2.37-5.07-5.48Z"/><path class="cls-1" d="M102.56,163.86h3v17.39h-3Zm0-6.66h3V161h-3Z"/><path class="cls-1" d="M119,177.7c0,.93.06,2.84.11,3.55h-2.77a11.76,11.76,0,0,1-.15-1.74,3.47,3.47,0,0,1-3.46,2c-2.91,0-4-2.64-4-5.11,0-3.43,2-5.67,5.91-5.67a10.65,10.65,0,0,1,1.36,0v-2c0-1.13-.15-2.5-1.85-2.5s-1.86,1.35-2,2.5h-2.91c.06-2.54,1.1-5.22,5-5.22,3.15,0,4.74,1.68,4.74,5Zm-2.93-4.28a6.42,6.42,0,0,0-1.26-.08c-2.22,0-3.07,1.2-3.07,2.8,0,1.24.54,2.53,2,2.53,1.92,0,2.38-1.62,2.38-4.57Z"/><path class="cls-1" d="M123,169.26c0-3.57,0-4.52,0-5.4h2.94a18.06,18.06,0,0,1,.1,2,3.52,3.52,0,0,1,3.42-2.29c2.38,0,3.88,1.67,3.88,5.31v12.4h-3.06V169.62c0-1.86-.4-3-1.91-3s-2.28,1.08-2.28,4v10.63H123Z"/><path class="cls-1" d="M143.6,158.33h5.78c3.29,0,5.17,2.15,5.17,5.73,0,2.95-1.23,4.33-2.36,4.81,1.45.64,3,2.17,3,5.65,0,4.27-2.36,6.73-5.88,6.73H143.6Zm5,9.28c2.32,0,3-1.08,3-3.22s-1-3.2-2.83-3.2h-2.09v6.42Zm-1.91,10.82H149c2,0,3.08-1.24,3.08-4s-1-4-3.48-4h-1.92Z"/><path class="cls-1" d="M168,177.7c0,.93.07,2.84.12,3.55h-2.78a13.46,13.46,0,0,1-.14-1.74,3.48,3.48,0,0,1-3.47,2c-2.9,0-4-2.64-4-5.11,0-3.43,2-5.67,5.92-5.67a10.41,10.41,0,0,1,1.35,0v-2c0-1.13-.15-2.5-1.84-2.5s-1.87,1.35-2,2.5h-2.9c.06-2.54,1.1-5.22,5-5.22,3.14,0,4.73,1.68,4.73,5Zm-2.93-4.28a6.37,6.37,0,0,0-1.25-.08c-2.22,0-3.07,1.2-3.07,2.8,0,1.24.54,2.53,1.94,2.53,1.93,0,2.38-1.62,2.38-4.57Z"/><path class="cls-1" d="M170.69,178.72c1.56-2.9,4.18-8,6.17-11.88h-5.74v-3h9.18v2.65c-1.37,2.69-4.26,8.37-6.06,11.78h6.17l-.34,3h-9.38Z"/><path class="cls-1" d="M192.72,177.7c0,.93.06,2.84.11,3.55h-2.77a11.76,11.76,0,0,1-.15-1.74,3.47,3.47,0,0,1-3.46,2c-2.91,0-4-2.64-4-5.11,0-3.43,2-5.67,5.91-5.67a10.65,10.65,0,0,1,1.36,0v-2c0-1.13-.15-2.5-1.85-2.5s-1.86,1.35-2,2.5H183c.06-2.54,1.1-5.22,5-5.22,3.15,0,4.74,1.68,4.74,5Zm-2.93-4.28a6.48,6.48,0,0,0-1.26-.08c-2.22,0-3.07,1.2-3.07,2.8,0,1.24.54,2.53,1.95,2.53,1.92,0,2.38-1.62,2.38-4.57Z"/><path class="cls-1" d="M206,177.7c0,.93.07,2.84.12,3.55h-2.77a11.76,11.76,0,0,1-.15-1.74,3.48,3.48,0,0,1-3.47,2c-2.9,0-4-2.64-4-5.11,0-3.43,2-5.67,5.92-5.67a10.41,10.41,0,0,1,1.35,0v-2c0-1.13-.15-2.5-1.84-2.5s-1.87,1.35-1.95,2.5h-2.91c.06-2.54,1.1-5.22,5-5.22,3.15,0,4.73,1.68,4.73,5Zm-2.92-4.28a6.48,6.48,0,0,0-1.26-.08c-2.22,0-3.07,1.2-3.07,2.8,0,1.24.54,2.53,1.94,2.53,1.93,0,2.39-1.62,2.39-4.57Z"/><path class="cls-1" d="M210,169.76c0-2.83,0-4.66,0-5.9h2.92c0,.35.08,1.1.08,2.94a4,4,0,0,1,4-3.22v3.91c-2.51,0-3.89,1.18-3.89,4.44v9.32H210Z"/><path class="cls-1" d="M235.41,177.7c0,.93.06,2.84.11,3.55h-2.77a11.76,11.76,0,0,1-.15-1.74,3.47,3.47,0,0,1-3.46,2c-2.91,0-4-2.64-4-5.11,0-3.43,2-5.67,5.92-5.67a10.65,10.65,0,0,1,1.36,0v-2c0-1.13-.15-2.5-1.85-2.5s-1.86,1.35-1.95,2.5H225.7c.06-2.54,1.1-5.22,5-5.22,3.15,0,4.74,1.68,4.74,5Zm-2.93-4.28a6.48,6.48,0,0,0-1.26-.08c-2.22,0-3.07,1.2-3.07,2.8,0,1.24.54,2.53,1.95,2.53,1.92,0,2.38-1.62,2.38-4.57Z"/><path class="cls-1" d="M237.68,163.86h2v-4.44h3v4.44h2.44v2.91h-2.44v10.15c0,1.07.18,1.7,1.29,1.7a4.51,4.51,0,0,0,.93-.07v2.6a5.12,5.12,0,0,1-2,.33c-2.2,0-3.24-1-3.24-3.95V166.77h-2Z"/><path class="cls-1" d="M255.94,163.86c1.28,6.16,2.41,11.06,2.59,13.07h0c.33-2.31,1.45-7.68,2.61-13.07h3.09l-4.37,18.21c-1.28,5.3-2.79,5.74-4.91,5.74a5.54,5.54,0,0,1-1.27-.13v-3a6.28,6.28,0,0,0,1.06.08c1.42,0,1.87-.93,2.34-3.24l-4.51-17.66Z"/><path class="cls-1" d="M277,172.39c0,6.24-1.94,9.19-5.55,9.19s-5.49-2.82-5.49-9.11c0-6.12,2.18-8.91,5.64-8.91S277,166.56,277,172.39Zm-7.95.07c0,4.06.7,6.16,2.47,6.16s2.39-2.09,2.39-6.14-.69-5.94-2.41-5.94S269.06,168.4,269.06,172.46Z"/><path class="cls-1" d="M290.45,176.26c0,2.41,0,4.11,0,5h-2.91c-.07-.52-.1-1.28-.12-2a3.35,3.35,0,0,1-3.45,2.34c-2,0-3.78-1.08-3.78-5.2V163.86h3.06v11.69c0,1.88.39,3,1.81,3s2.31-.94,2.31-4V163.86h3.05Z"/><path class="cls-1" d="M294.09,169.76c0-2.83,0-4.66,0-5.9H297c0,.35.08,1.1.08,2.94a4,4,0,0,1,4-3.22v3.91c-2.51,0-3.89,1.18-3.89,4.44v9.32h-3.05Z"/><path class="cls-1" d="M320.1,157.2v19.34c0,1.93,0,3.69,0,4.71h-2.94c-.05-.44-.1-1.42-.1-2a3.21,3.21,0,0,1-3.43,2.31c-3.17,0-4.46-3.22-4.46-9.15,0-5.41,1.6-8.84,5-8.84a2.77,2.77,0,0,1,2.84,1.52V157.2Zm-7.79,15.25c0,4.36.75,6.1,2.36,6.1,2,0,2.46-1.85,2.46-6.22s-.39-5.75-2.31-5.75C313.27,166.58,312.31,168,312.31,172.45Z"/><path class="cls-1" d="M334.35,172.39c0,6.24-1.94,9.19-5.55,9.19s-5.49-2.82-5.49-9.11c0-6.12,2.18-8.91,5.64-8.91S334.35,166.56,334.35,172.39Zm-8,.07c0,4.06.7,6.16,2.47,6.16s2.39-2.09,2.39-6.14-.69-5.94-2.41-5.94S326.4,168.4,326.4,172.46Z"/><path class="cls-1" d="M348,172.39c0,6.24-1.94,9.19-5.55,9.19s-5.49-2.82-5.49-9.11c0-6.12,2.19-8.91,5.64-8.91S348,166.56,348,172.39Zm-7.95.07c0,4.06.71,6.16,2.47,6.16s2.39-2.09,2.39-6.14-.69-5.94-2.41-5.94S340.08,168.4,340.08,172.46Z"/><path class="cls-1" d="M351.29,169.76c0-2.83,0-4.66,0-5.9h2.92c0,.35.07,1.1.07,2.94a4,4,0,0,1,4-3.22v3.91c-2.52,0-3.89,1.18-3.89,4.44v9.32h-3Z"/></svg>